<?xml version="1.0" encoding="UTF-8" standalone="no"?>
<svg
   xmlns:dc="http://purl.org/dc/elements/1.1/"
   xmlns:cc="http://creativecommons.org/ns#"
   xmlns:rdf="http://www.w3.org/1999/02/22-rdf-syntax-ns#"
   xmlns:svg="http://www.w3.org/2000/svg"
   xmlns="http://www.w3.org/2000/svg"
   width="48"
   height="48"
   viewBox="0 0 12.7 12.7"
   version="1.1"
   id="svg8">
  <defs
     id="defs2" />
  <metadata
     id="metadata5">
    <rdf:RDF>
      <cc:Work
         rdf:about="">
        <dc:format>image/svg+xml</dc:format>
        <dc:type
           rdf:resource="http://purl.org/dc/dcmitype/StillImage" />
        <dc:title></dc:title>
      </cc:Work>
    </rdf:RDF>
  </metadata>
  <g
     id="layer1">
    <path
       id="path895"
       style="font-variation-settings:normal;vector-effect:none;fill:#ffffff;fill-opacity:1;stroke:#4d4d4d;stroke-width:0.126409;stroke-linecap:butt;stroke-linejoin:miter;stroke-miterlimit:4;stroke-dasharray:none;stroke-dashoffset:0;stroke-opacity:1;stop-color:#000000"
       d="M 1.2985203,1.2846851 C 1.1404195,1.2813651 1.0054599,1.3060631 0.90113758,1.3652841 0.07518566,1.8341545 0.18442014,5.1101535 0.18442037,6.0599096 0.18442062,7.0195847 0.0735539,10.318644 0.90113758,10.804526 1.4178951,11.107919 2.7148237,10.530451 3.8093262,9.9434453 3.9168144,10.396747 4.07201,10.748174 4.3000606,10.882064 5.1190904,11.362925 7.9013005,9.6306997 8.7238128,9.1558215 9.5549159,8.6759838 12.467213,7.1220928 12.474208,6.1624432 12.48113,5.2127126 9.5896856,3.6694485 8.767173,3.1945708 7.9360697,2.7147334 5.134639,0.96956476 4.3000606,1.4433321 4.0931476,1.560791 3.9448681,1.8541313 3.838913,2.2431987 2.954056,1.7680536 1.9382742,1.2981371 1.2985203,1.2846851 Z" />
    <path
       id="path913"
       style="font-variation-settings:normal;vector-effect:none;fill:#ffffff;fill-opacity:1;stroke:none;stroke-width:0.126409;stroke-linecap:butt;stroke-linejoin:miter;stroke-miterlimit:4;stroke-dasharray:none;stroke-dashoffset:0;stroke-opacity:1;stop-color:#000000"
       d="M 1.2985203,1.2846851 C 1.1404195,1.2813651 1.0054599,1.3060631 0.90113758,1.3652841 0.07518566,1.8341545 0.18442014,5.1101535 0.18442037,6.0599096 0.18442062,7.0195847 0.0735539,10.318644 0.90113758,10.804526 1.4178951,11.107919 2.7148237,10.530451 3.8093262,9.9434453 3.9168144,10.396747 4.07201,10.748174 4.3000606,10.882064 5.1190904,11.362925 7.9013005,9.6306997 8.7238128,9.1558215 9.5549159,8.6759838 12.467213,7.1220928 12.474208,6.1624432 12.48113,5.2127126 9.5896856,3.6694485 8.767173,3.1945708 7.9360697,2.7147334 5.134639,0.96956476 4.3000606,1.4433321 4.0931476,1.560791 3.9448681,1.8541313 3.838913,2.2431987 2.954056,1.7680536 1.9382742,1.2981371 1.2985203,1.2846851 Z" />
    <path
       style="fill:#d40000;fill-opacity:0.5;stroke:none;stroke-width:0.120865;stop-color:#000000"
       id="path28"
       d="M 0.90123583,10.80429 C 0.0736521,10.318407 0.18449769,7.0194208 0.18449745,6.0597456 0.18449721,5.1099898 0.07528384,1.8342376 0.90123581,1.3653671 1.7358141,0.89159975 4.5373974,2.6370881 5.3685007,3.1169255 6.1910135,3.5918032 9.0825048,5.1350978 9.0755825,6.0848284 9.0685879,7.0444781 6.156159,8.5979762 5.325056,9.077814 4.5025435,9.5526922 1.7202655,11.28515 0.90123583,10.80429 Z" />
    <path
       style="fill:#00ccff;fill-opacity:0.5;stroke:none;stroke-width:0.120865;stroke-opacity:0.523129;stop-color:#000000"
       id="path32"
       d="M 4.3000581,10.882056 C 3.4724744,10.396174 3.58332,7.0971872 3.5833198,6.137512 3.5833195,5.1877562 3.4741061,1.912004 4.3000581,1.4431335 5.1346364,0.96936617 7.9362198,2.7148545 8.767323,3.1946919 9.5898358,3.6695696 12.481327,5.2128642 12.474405,6.1625948 12.46741,7.1222445 9.5549813,8.6757426 8.7238783,9.1555805 7.9013658,9.6304586 5.1190878,11.362916 4.3000581,10.882056 Z" />
  </g>
</svg>
